<svg xmlns="http://www.w3.org/2000/svg" viewBox="0 0 400 400">
  <path class="st0" d="M231.9 69.8c-.5-.5-1.5-.8-2.8-.8h-13.5c-1.4 0-2.2.3-2.6.8-.4.5-.7 1.5-.7 2.8l-.3 31.8v3.1l-4.1-12c-.7-1.1-1.5-1.9-2.3-2.4s-1.9-.8-3.1-.8h-3.1c-1.4 0-2.3.3-3.1.8s-1.6 1.4-2.3 2.4l-4.1 12v-3.1l-.4-31.8c0-1.4-.3-2.2-.8-2.8-.5-.5-1.5-.8-2.8-.8h-15c-1.4 0-2.2.3-2.8.8-.5.5-.8 1.5-.8 2.8l.4 37.2v3.9c0 1.1.1 2.2.3 3.1.1.9.3 2 .5 3.2.3 1.2.5 2.6 1.1 4.3l3.6 14.1c.3 1.2.8 2.2 1.6 2.7.8.7 1.8.9 3.1.9h10.9c1.6 0 2.7-.3 3.5-.8s1.4-1.2 1.6-2.3l5.4-17.8h2.4l5.4 17.8c.3 1.1.8 1.9 1.6 2.3.8.5 1.9.7 3.5.7h10.1c1.4 0 2.3-.3 3-.9s1.2-1.5 1.5-2.7l3.6-13.8c.5-1.8.8-3.1 1.1-4.3s.4-2.3.5-3.2c.1-.9.1-2 .3-3.1V110l.4-37.4c0-1.3-.3-2.3-.8-2.8zm-2.2 127.8c-.3-1.1-.7-2.3-1.2-3.6s-1.1-2.8-1.9-4.7l-8.8-23.1c-.4-1.4-1.1-2.2-1.9-2.7-.8-.5-1.9-.7-3.1-.7h-26.4c-1.4 0-2.3.3-3.2.7-.8.5-1.5 1.4-2 2.7l-7.8 23.1c-.8 1.9-1.4 3.5-1.9 4.7-.5 1.4-.9 2.4-1.2 3.6-.3 1.1-.5 2.3-.7 3.5-.1 1.2-.1 2.7-.1 4.5v26.9c0 1.4.3 2.2.8 2.8.5.5 1.5.8 2.8.8h15c1.4 0 2.2-.3 2.8-.8.5-.5.8-1.5.8-2.8v-14.2h15.9v14.2c0 1.4.3 2.2 1.1 2.8.7.5 1.6.8 3 .8H227c1.4 0 2.2-.3 2.8-.8.5-.5.8-1.5.8-2.8v-26.9c0-1.8-.1-3.2-.1-4.5-.2-1.2-.5-2.2-.8-3.5zm-37 2.1l4.7-15.4c.3-.7.5-1.1.8-1.4.3-.3.7-.4 1.2-.4h.5c.5 0 .9.1 1.2.4.3.3.5.7.8 1.4l4.7 15.4h-13.9zm33.2 58.1h-31.8c-9.6 0-16.1 1.9-19.7 5.8-3.5 3.9-5.4 8.9-5.4 15v31.6c0 6.1 1.8 11.1 5.4 15 3.6 3.9 10.1 5.8 19.7 5.8h31.8c1.4 0 2.2-.3 2.8-.8.5-.5.8-1.5.8-2.8v-12.2c0-1.4-.3-2.2-.8-2.8-.5-.5-1.5-.8-2.8-.8h-27.4c-2.7 0-4.3-.4-5.1-1.4-.8-.9-1.1-2-1.1-3.5v-24.2c0-1.4.4-2.4 1.1-3.5.8-1.1 2.4-1.6 5.1-1.6h27.4c1.4 0 2.2-.3 2.8-.8.5-.5.8-1.5.8-2.8v-12.3c0-1.4-.3-2.2-.8-2.8-.6-.5-1.5-.9-2.8-.9zm173.3-70c-.5-.5-1.5-.8-2.8-.8h-75.3V44.2c0-1.4-.3-2.2-.8-2.8-.5-.5-1.5-.8-2.8-.8h-14.7c-1.4 0-2.2.3-2.8.8-.5.5-.8 1.5-.8 2.8v312.5c0 1.4.3 2.2.8 2.8.5.5 1.5.8 2.8.8h14.7c1.4 0 2.2-.3 2.8-.8.5-.5.8-1.5.8-2.8V207.8h75.3c1.4 0 2.2-.3 2.8-.8.5-.5.8-1.5.8-2.8v-13.6c0-1.3-.3-2.2-.8-2.8z"/>
  <path class="st0" d="M273.2 27.6H126.7c-1.4 0-2.2.3-2.8.8-.5.5-.8 1.5-.8 2.8v338.5c0 1.4.3 2.2.8 2.8.5.5 1.5.8 2.8.8H273c1.4 0 2.2-.3 2.8-.8.5-.5.8-1.5.8-2.8V31.2c0-1.4-.3-2.2-.8-2.8-.4-.5-1.3-.8-2.6-.8zM145.3 48.5h109.6v304.1H145.3V48.5zm-47.9-7H82.7c-1.4 0-2.2.3-2.8.8-.5.5-.8 1.5-.8 2.8V186H3.6c-1.4 0-2.2.3-2.8.8-.5.6-.8 1.6-.8 2.9v13.7c0 1.4.3 2.2.8 2.8.5.5 1.5.8 2.8.8h75.3v148.8c0 1.4.3 2.2.8 2.8.5.5 1.5.8 2.8.8h14.7c1.4 0 2.2-.3 2.8-.8.5-.5.8-1.5.8-2.8V45.1c0-1.4-.3-2.2-.8-2.8-.4-.4-1.2-.8-2.6-.8z"/>
</svg>
