<?xml version="1.0" encoding="UTF-8" standalone="no"?>
<svg
   xmlns:dc="http://purl.org/dc/elements/1.1/"
   xmlns:cc="http://creativecommons.org/ns#"
   xmlns:rdf="http://www.w3.org/1999/02/22-rdf-syntax-ns#"
   xmlns:svg="http://www.w3.org/2000/svg"
   xmlns="http://www.w3.org/2000/svg"
   viewBox="0 0 867.09332 172.32001"
   height="172.32001"
   width="867.09332"
   xml:space="preserve"
   id="svg2"
   version="1.1"><metadata
     id="metadata8"><rdf:RDF><cc:Work
         rdf:about=""><dc:format>image/svg+xml</dc:format><dc:type
           rdf:resource="http://purl.org/dc/dcmitype/StillImage" /></cc:Work></rdf:RDF></metadata><defs
     id="defs6" /><g
     transform="matrix(1.3333333,0,0,-1.3333333,0,172.32)"
     id="g10"><g
       transform="scale(0.1)"
       id="g12"><path
         id="path14"
         style="fill:#231e1f;fill-opacity:1;fill-rule:nonzero;stroke:none"
         d="m 1150.6,563.746 c -12.68,-44.348 -37.42,-84.98 -74.22,-121.758 L 706.387,71.9883 436.031,342.34 991.949,898.258 1065.78,824.422 c 38.77,-38.762 65.85,-80.981 81.37,-126.543 14.31,-45.078 15.46,-89.848 3.45,-134.133 z M 113.949,664.43 669.859,1220.36 936.348,953.852 380.434,397.934 Z M 1187.66,1292.35 H 100.301 C 44.9023,1292.35 0,1247.44 0,1192.04 V 100.309 C 0,44.9102 44.9023,0 100.301,0 H 1187.66 c 55.4,0 100.3,44.9102 100.3,100.309 V 1192.04 c 0,55.4 -44.9,100.31 -100.3,100.31" /><path
         id="path16"
         style="fill:#231f20;fill-opacity:1;fill-rule:nonzero;stroke:none"
         d="m 5095.93,858.688 h -222.1 v 95.617 h 222.1 v -95.617" /><path
         id="path18"
         style="fill:#231f20;fill-opacity:1;fill-rule:nonzero;stroke:none"
         d="m 2537.81,634.73 c 0,-33.855 9.98,-58.894 29.93,-75.132 19.96,-16.223 45.03,-24.289 75.23,-24.289 30.52,0 55.61,7.949 75.25,23.925 19.6,15.957 29.42,41.641 29.42,76.993 0,32.871 -9.94,57.351 -29.7,73.476 -19.79,16.106 -44.26,24.168 -73.42,24.168 -30.89,0 -56.39,-8.183 -76.52,-24.519 -20.12,-16.368 -30.19,-41.211 -30.19,-74.622 z m -213.07,-0.671 c 0,57.949 28.48,105.703 85.61,143.3 57.07,37.539 134.2,56.336 231.35,56.336 111.05,0 194.96,-22.066 251.74,-66.187 45.57,-35.547 68.37,-79.309 68.37,-131.281 0,-58.465 -28.29,-106.329 -84.84,-143.692 -56.61,-37.363 -134.84,-56.023 -234.74,-56.023 -89.13,0 -161.22,15.535 -216.2,46.504 -67.54,38.425 -101.29,88.726 -101.29,151.043" /><path
         id="path20"
         style="fill:#231f20;fill-opacity:1;fill-rule:nonzero;stroke:none"
         d="m 5409.45,634.73 c 0,-33.855 9.98,-58.894 29.94,-75.132 20.02,-16.223 45.05,-24.289 75.26,-24.289 30.51,0 55.61,7.949 75.23,23.925 19.59,15.957 29.44,41.641 29.44,76.993 0,32.871 -9.94,57.351 -29.71,73.476 -19.78,16.106 -44.25,24.168 -73.34,24.168 -30.98,0 -56.47,-8.183 -76.62,-24.519 -20.12,-16.368 -30.2,-41.211 -30.2,-74.622 z m -213.05,-0.671 c 0,57.949 28.51,105.703 85.61,143.3 57.11,37.539 134.22,56.336 231.37,56.336 111.04,0 194.96,-22.066 251.72,-66.187 45.56,-35.547 68.38,-79.309 68.38,-131.281 0,-58.465 -28.29,-106.329 -84.84,-143.692 -56.61,-37.363 -134.83,-56.023 -234.77,-56.023 -89.12,0 -161.2,15.535 -216.15,46.504 -67.56,38.425 -101.32,88.726 -101.32,151.043" /><path
         id="path22"
         style="fill:#231f20;fill-opacity:1;fill-rule:nonzero;stroke:none"
         d="m 4062.4,626.859 c -28.2,-7.117 -57.5,-13.445 -88.06,-18.855 -41.59,-7.781 -67.89,-15.496 -78.94,-23.086 -11.42,-7.805 -17.08,-16.66 -17.08,-26.621 0,-11.367 5.6,-20.664 16.86,-27.879 11.19,-7.23 27.69,-10.844 49.51,-10.844 22.79,0 44.01,3.899 63.63,11.699 19.62,7.872 33.53,17.375 41.77,28.606 8.18,11.269 12.31,25.879 12.31,43.855 z m -177.82,76.594 -195.66,14.199 c 7.4,24.383 18.02,43.465 31.97,57.469 13.88,13.93 33.92,26.086 60.08,36.367 18.75,7.414 44.62,13.125 77.45,17.18 32.85,4.031 68.41,6.102 106.62,6.102 61.37,0 110.66,-2.481 147.85,-7.325 37.21,-4.89 68.23,-15.039 93.07,-30.515 17.41,-10.657 31.14,-25.852 41.2,-45.469 10.06,-19.617 15.14,-38.34 15.14,-56.191 l -0.37,-258.614 -186.15,-0.144 c 0,0 -0.3,30.691 -0.3,57.293 -26.81,-18.371 -54.99,-31.543 -81.5,-39.407 -36.2,-10.496 -78.25,-15.796 -126.19,-15.796 -63.7,0 -112.08,10.476 -145.12,31.394 -32.98,20.945 -49.51,46.77 -49.51,77.442 0,28.781 11.93,52.429 35.7,71.027 23.84,18.562 67.71,32.305 131.77,41.355 76.73,10.95 126.55,18.614 149.34,23.02 22.82,4.402 46.96,10.183 72.43,17.305 0,17.847 -5.24,30.3 -15.66,37.441 -10.38,7.144 -28.67,10.711 -54.89,10.711 -33.53,0 -58.72,-3.789 -75.5,-11.399 -13.16,-5.894 -23.67,-17.097 -31.77,-33.445" /><path
         id="path24"
         style="fill:#231f20;fill-opacity:1;fill-rule:nonzero;stroke:none"
         d="m 5907.91,825.672 h 201.21 v -63.293 c 30.04,25.945 60.45,44.465 91.13,55.598 30.72,11.152 68.17,16.699 112.28,16.699 59.65,0 106.38,-12.258 140.04,-36.86 33.7,-24.539 50.65,-62.5 50.65,-113.836 V 436.512 h -217.33 v 214.109 c 0,24.434 -6.47,41.688 -19.48,51.895 -13,10.097 -31.3,15.168 -54.85,15.168 -26.01,0 -47.07,-6.868 -63.22,-20.532 -16.22,-13.699 -24.27,-38.23 -24.27,-73.648 V 436.512 h -216.16 v 389.16" /><path
         id="path26"
         style="fill:#231f20;fill-opacity:1;fill-rule:nonzero;stroke:none"
         d="m 1631.04,825.672 h 201.29 v -63.293 c 29.98,25.945 60.39,44.465 91.07,55.598 30.74,11.152 68.16,16.699 112.28,16.699 59.64,0 106.35,-12.258 140.07,-36.86 33.68,-24.539 50.59,-62.5 50.59,-113.836 V 436.512 h -217.29 v 214.109 c 0,24.434 -6.5,41.688 -19.5,51.895 -12.99,10.097 -31.28,15.168 -54.83,15.168 -26.01,0 -47.09,-6.868 -63.29,-20.532 -16.14,-13.699 -24.2,-38.23 -24.2,-73.648 V 436.512 h -216.19 v 389.16" /><path
         id="path28"
         style="fill:#231f20;fill-opacity:1;fill-rule:nonzero;stroke:none"
         d="m 4446.81,938.871 h 211.16 V 830.395 h 104.34 v -85.118 h -104.05 c 0,0 0,-36.328 0,-92.207 0,-55.925 102.33,-57.968 102.33,-57.968 v -158.59 h -102.62 c 0,0 -213.62,-13.332 -213.62,196.941 0,210.32 0,111.008 0,111.008 h -81.79 v 81.758 h 84.25 v 112.652" /><path
         id="path30"
         style="fill:#231f20;fill-opacity:1;fill-rule:nonzero;stroke:none"
         d="m 4875.02,833.055 h 222.14 V 436.512 h -222.14 v 396.543" /><path
         id="path32"
         style="fill:#231f20;fill-opacity:1;fill-rule:nonzero;stroke:none"
         d="m 2994.44,833.055 h 214.55 l 105.05,-235.989 107.24,235.989 h 212.33 L 3443.48,436.512 h -255.95 l -193.09,396.543" /></g></g></svg>